<?xml version="1.0" encoding="UTF-8"?>
<svg version="1.1" xmlns="http://www.w3.org/2000/svg" width="512" height="512">
<path d="M0 0 C168.96 0 337.92 0 512 0 C512 168.96 512 337.92 512 512 C343.04 512 174.08 512 0 512 C0 343.04 0 174.08 0 0 Z " fill="#000000" transform="translate(0,0)"/>
<path d="M0 0 C17.34271853 14.3194237 20.873527 34.73527003 23 56 C23 62.93 23 69.86 23 77 C7.16 77 -8.68 77 -25 77 C-25.3125 63.0625 -25.3125 63.0625 -25.38793945 58.72290039 C-25.58593635 48.50416015 -25.58593635 48.50416015 -29 39 C-33.25939459 36.16040361 -37.00222477 36.37627765 -42 37 C-46.33096092 39.21155451 -47.76642072 42.01069658 -49.37978172 46.52104378 C-50.6345051 51.53605936 -50.40555133 56.65094397 -50.37231445 61.79077148 C-50.37596512 63.05520081 -50.37961578 64.31963013 -50.38337708 65.62237549 C-50.39273283 69.07084616 -50.38340529 72.51903033 -50.37004495 75.96747851 C-50.35866983 79.58940812 -50.36284268 83.21132486 -50.36479187 86.83326721 C-50.36567305 92.91501504 -50.35463232 98.99665103 -50.33618164 105.07836914 C-50.31502624 112.09139078 -50.3115032 119.1042486 -50.3177436 126.11729568 C-50.3234559 132.88547563 -50.31776906 139.65359839 -50.30657005 146.4217701 C-50.30194775 149.29195281 -50.3010399 152.16210028 -50.3031559 155.03228569 C-50.30540468 159.04822097 -50.29086836 163.0639308 -50.2746582 167.07983398 C-50.27713562 168.25985489 -50.27961304 169.43987579 -50.28216553 170.65565491 C-50.21326128 183.04920426 -50.21326128 183.04920426 -45 194 C-41.58071806 196.56446145 -38.1498078 196.29641484 -34 196 C-31.51618802 195.08156813 -30.28262537 194.40419865 -28.75579834 192.22059631 C-26.00580294 186.07742226 -25.39918646 180.7463224 -25.390625 174.05859375 C-25.37408875 173.05031021 -25.35755249 172.04202667 -25.34051514 171.00318909 C-25.29232095 167.81456233 -25.27072756 164.62641148 -25.25 161.4375 C-25.22181646 159.26234621 -25.19188573 157.08721432 -25.16015625 154.91210938 C-25.08656954 149.60811214 -25.03682051 144.3043747 -25 139 C-29.29 139 -33.58 139 -38 139 C-38 124.81 -38 110.62 -38 96 C-17.87 96 2.26 96 23 96 C23 143.52 23 191.04 23 240 C16.4 240 9.8 240 3 240 C-1.5 231 -1.5 231 -3.25 226.5 C-3.58515625 225.6440625 -3.9203125 224.788125 -4.265625 223.90625 C-4.50796875 223.2771875 -4.7503125 222.648125 -5 222 C-5.66 222 -6.32 222 -7 222 C-8.05014305 223.31566217 -9.03976399 224.67985248 -10 226.0625 C-16.7571884 234.90524038 -25.91355922 240.43639592 -37 242 C-53.02353022 243.40014404 -66.02485018 242.10825958 -79 232 C-79.60457031 231.54496094 -80.20914063 231.08992187 -80.83203125 230.62109375 C-91.18537606 221.67000783 -95.8223035 206.04223928 -98 193 C-98.16631424 192.03601791 -98.33262848 191.07203583 -98.50398254 190.07884216 C-100.47460084 176.79334444 -100.31196097 163.49623514 -100.30158257 150.09060979 C-100.30049867 147.31031804 -100.30543169 144.53004843 -100.310188 141.74976152 C-100.32120958 135.1795924 -100.32176193 128.60948049 -100.31567383 122.03930664 C-100.30963556 115.31253251 -100.3219583 108.58596762 -100.3432439 101.85922915 C-100.36098205 96.03447189 -100.36684235 90.20978051 -100.36360615 84.38499731 C-100.36181302 80.92775501 -100.36422846 77.47066214 -100.37832069 74.0134449 C-100.45711273 49.63183564 -100.01937762 24.76766496 -82.78515625 5.52734375 C-62.21610669 -14.44163629 -23.30773498 -16.37742254 0 0 Z " fill="#FCFCFC" transform="translate(125,131)"/>
<path d="M0 0 C16.17 0 32.34 0 49 0 C49.029729 8.60823853 49.029729 8.60823853 49.06005859 17.39038086 C49.12693496 36.34149801 49.20447562 55.2925604 49.28752708 74.24361324 C49.33762522 85.73474233 49.3840685 97.22586438 49.421875 108.71704102 C49.45484068 118.73403565 49.49469724 128.75097526 49.54279006 138.76790911 C49.56800948 144.07060633 49.58980424 149.37326725 49.60334396 154.67600822 C49.61620563 159.67052176 49.63830426 164.66491054 49.66738319 169.65935516 C49.67642691 171.48903871 49.68214169 173.31874232 49.68421364 175.14844704 C49.68755892 177.65464183 49.70309696 180.16048773 49.7215271 182.66661072 C49.71959237 183.38356627 49.71765763 184.10052182 49.71566427 184.8392033 C49.78340925 191.03927992 50.05380703 197.72017395 54.1875 202.5625 C57.80267016 204.41025364 59.98630836 204.57338452 64 204 C67.81585661 202.0920717 69.28054632 199.91430513 70.61360168 195.99697876 C72.87374109 187.99613739 72.44041696 179.66533351 72.43237305 171.42333984 C72.44140051 169.54996091 72.45173013 167.67658788 72.46325684 165.80322266 C72.49073732 160.74197698 72.50009917 155.68084365 72.50611091 150.61953306 C72.51551792 145.32106834 72.54172318 140.02268678 72.56611633 134.72427368 C72.60972105 124.70190453 72.63830503 114.67955157 72.66143972 104.65711653 C72.68852372 93.24230166 72.73243326 81.82757068 72.77772844 70.41281581 C72.87048843 46.94191057 72.93998794 23.4710134 73 0 C88.84 0 104.68 0 121 0 C121.04521475 24.66151839 121.08202868 49.32300301 121.10362434 73.98455238 C121.11391983 85.43633131 121.12794705 96.88808258 121.15087891 108.33984375 C121.17086577 118.32571824 121.18372898 128.3115727 121.18817699 138.29746664 C121.19077542 143.58078899 121.19684664 148.86405403 121.21146011 154.14735794 C121.22512782 159.12953203 121.22920422 164.1116257 121.22621536 169.09381676 C121.22676144 170.91335552 121.23068375 172.73289723 121.23841095 174.55241966 C121.31798883 194.27325312 119.83923334 214.41870814 108 231 C107.2575 232.051875 106.515 233.10375 105.75 234.1875 C94.27057701 245.92781897 79.61863805 250.0015991 63.59106445 250.24145508 C45.78866364 250.29878179 30.68400618 248.15576685 17.3203125 235.44140625 C1.07483185 218.34809748 -0.48244646 195.72232906 -0.34057617 173.35327148 C-0.33972757 171.44931044 -0.34020957 169.54534842 -0.34190369 167.64138794 C-0.34275598 162.52883281 -0.32525588 157.41649365 -0.30418181 152.30398822 C-0.28528573 146.9402242 -0.28365447 141.57645392 -0.28010559 136.21266174 C-0.2708228 126.08067248 -0.24626059 115.94878162 -0.21605712 105.81683546 C-0.18239511 94.27133018 -0.16599757 82.72581993 -0.15097082 71.18027771 C-0.11970722 47.45345154 -0.06474285 23.72676007 0 0 Z " fill="#FCFCFC" transform="translate(164,123)"/>
<path d="M0 0 C0.969375 0.680625 1.93875 1.36125 2.9375 2.0625 C14.33336581 11.84320372 17.80030568 27.92195636 20 42 C20 48.27 20 54.54 20 61 C3.5 61 -13 61 -30 61 C-30.495 50.605 -30.495 50.605 -31 40 C-33.52565835 35.84188612 -33.52565835 35.84188612 -37 35 C-41.42717321 34.50265642 -44.84632134 34.13474101 -48.5 36.875 C-51.71531605 41.43003107 -51.65077422 45.54880891 -51 51 C-48.42253156 59.14731487 -42.88103965 65.03919941 -37 71 C-36.32614258 71.68755371 -35.65228516 72.37510742 -34.95800781 73.08349609 C-24.15486087 84.085106 -24.15486087 84.085106 -12.76635742 94.46948242 C6.04154453 110.76619801 19.69253267 130.78531397 22 156 C23.09239639 177.96367845 22.32233591 205.29113306 7.7109375 223.12890625 C-1.2260009 232.90240737 -12.30963555 239.27526127 -25.78735352 240.18896484 C-28.94410762 240.26854901 -32.09237384 240.27279874 -35.25 240.25 C-36.30574219 240.25773438 -37.36148438 240.26546875 -38.44921875 240.2734375 C-55.85890942 240.23081892 -71.21220732 236.48206576 -83.9296875 224.125 C-95.84516839 211.44242807 -99.19978137 194.10466483 -99.09765625 177.25 C-99.09664917 176.45207031 -99.09564209 175.65414062 -99.09460449 174.83203125 C-99.08942332 171.88800594 -99.0754626 168.94400133 -99.0625 166 C-99.041875 159.4 -99.02125 152.8 -99 146 C-83.16 146 -67.32 146 -51 146 C-50.6875 163.375 -50.6875 163.375 -50.61206055 168.79443359 C-50.53895878 180.72865322 -50.53895878 180.72865322 -47 192 C-43.36320398 194.6265749 -39.3837692 194.39140796 -35 194 C-31.99004361 192.72912952 -30.47260009 191.8556549 -28.88671875 188.984375 C-25.23160448 176.68258071 -27.66863871 162.47709281 -33.3671875 151.32421875 C-39.5619806 140.67595499 -48.67571536 131.80645302 -57.94506836 123.81689453 C-61.45991623 120.70919608 -64.7557034 117.38854081 -68.0625 114.0625 C-68.73087891 113.39798828 -69.39925781 112.73347656 -70.08789062 112.04882812 C-88.25023052 93.85118727 -99.14678403 75.31383281 -99.4375 49.125 C-99.34043801 31.95433482 -95.60490179 14.60490179 -83 2 C-60.72521319 -17.36501736 -23.62656048 -17.32614435 0 0 Z " fill="#FD3030" transform="translate(468,133)"/>
<path d="M0 0 C16.83 0 33.66 0 51 0 C51 13.86 51 27.72 51 42 C34.17 42 17.34 42 0 42 C0 28.14 0 14.28 0 0 Z " fill="#A2A2A2" transform="translate(302,296)"/>
<path d="M0 0 C16.83 0 33.66 0 51 0 C51 13.86 51 27.72 51 42 C34.17 42 17.34 42 0 42 C0 28.14 0 14.28 0 0 Z " fill="#A2A2A2" transform="translate(302,192)"/>
</svg>
